<?xml version="1.0" standalone="no"?><!DOCTYPE svg PUBLIC "-//W3C//DTD SVG 1.1//EN" "http://www.w3.org/Graphics/SVG/1.1/DTD/svg11.dtd"><svg t="1580624734124" class="icon" viewBox="0 0 1024 1024" version="1.1" xmlns="http://www.w3.org/2000/svg" p-id="6946" xmlns:xlink="http://www.w3.org/1999/xlink" width="200" height="200"><defs><style type="text/css">html, * { user-select: text !important; }
</style></defs><path d="M966.90342817 963.69785187c-43.54950281-174.14772094-181.03719187-304.74594-350.67909845-348.29544186 110.00020969-47.84410688 185.64358311-154.55547375 185.64358219-278.63635407 0-167.62032469-142.10413875-304.74594-314.00900999-304.74594094-174.19800937 0-314.00901001 137.14573031-314.00900906 304.74594094 0 124.08088031 75.64337344 230.74195875 185.65364062 278.59612312C187.59866129 658.94185437 52.37393598 791.73263469 8.83449159 963.69785187c-2.22273469 6.31618687-2.43394406 28.29208969 22.91126251 28.29209063h916.81257188c19.35086438 0 20.62818187-21.77475094 18.33504468-28.30214813zM487.85890192 151.72592937c-105.43404938 0-190.23991594 82.71388125-190.23991594 185.06024157 0 6.52739625-4.58627531 10.88234719-11.46568876 10.88234625s-11.45563125-4.35494999-11.45563124-10.88234625c0-113.19853312 96.27155625-206.80481906 213.16123594-206.80481907 6.86935594 0 11.45563125 4.35494999 11.45563125 10.88234625s-6.87941344 10.88234719-11.45563125 10.88234719z m0 0" p-id="6947" fill="#d4237a"></path></svg>